<?xml version="1.0" encoding="utf-8"?>
<!-- Generator: Adobe Illustrator 27.9.0, SVG Export Plug-In . SVG Version: 6.00 Build 0)  -->
<svg version="1.1" id="Layer_1" xmlns="http://www.w3.org/2000/svg" xmlns:xlink="http://www.w3.org/1999/xlink" x="0px" y="0px"
	 viewBox="0 0 448 512" style="enable-background:new 0 0 448 512;" xml:space="preserve">
<style type="text/css">
	.st0{fill:#505162;}
</style>
<path class="st0" d="M432,256c0,26.5-21.5,48-48,48s-48-21.5-48-48s21.5-48,48-48S432,229.5,432,256z M272,256c0,26.5-21.5,48-48,48
	s-48-21.5-48-48s21.5-48,48-48S272,229.5,272,256z M64,304c-26.5,0-48-21.5-48-48s21.5-48,48-48s48,21.5,48,48S90.5,304,64,304z"/>
</svg>
