<?xml version="1.0" encoding="utf-8"?>
<!-- Generator: Adobe Illustrator 27.9.0, SVG Export Plug-In . SVG Version: 6.00 Build 0)  -->
<svg version="1.1" id="Layer_1" xmlns="http://www.w3.org/2000/svg" xmlns:xlink="http://www.w3.org/1999/xlink" x="0px" y="0px"
	 viewBox="0 0 20 20" style="enable-background:new 0 0 20 20;" xml:space="preserve">
<style type="text/css">
	.st0{fill:#9092A2;}
</style>
<g id="Text_1">
</g>
<path class="st0" d="M17.8,13.7H6.8v-3.5c0-0.2-0.1-0.4-0.3-0.4c-0.1,0-0.1,0-0.2,0C6.2,9.8,6,9.8,6,9.9L1.8,14
	c-0.2,0.2-0.2,0.5,0,0.7L6,18.8c0.1,0.1,0.3,0.2,0.5,0.1c0.2-0.1,0.3-0.2,0.3-0.4V15h11.1c0.3,0,0.6-0.3,0.6-0.6
	S18.2,13.7,17.8,13.7z"/>
<path class="st0" d="M2.2,6.3h11.1v3.5c0,0.2,0.1,0.4,0.3,0.4c0.2,0.1,0.4,0,0.5-0.1L18.2,6c0.2-0.2,0.2-0.5,0-0.7L14,1.2
	c-0.1-0.1-0.2-0.1-0.3-0.1c-0.1,0-0.1,0-0.2,0c-0.2,0.1-0.3,0.2-0.3,0.4V5H2.2C1.8,5,1.5,5.3,1.5,5.6S1.8,6.3,2.2,6.3z"/>
</svg>
