<?xml version="1.0" encoding="UTF-8"?>
<svg id="Main_art" xmlns="http://www.w3.org/2000/svg" viewBox="0 0 130 130">
	<defs>
		<style>
			.cls-1 {
			fill: #fff;
			}
		</style>
	</defs>
	<path class="cls-1" d="M115.94,43.76v36.79c0,.17-.07.33-.18.45-.25.24-.66.24-.9,0l-26.96-26.8c-.12-.12-.19-.27-.19-.44,0-.15.05-.28.14-.39l32.86-29.49.26-.25c1.96-2.06,3.04-4.76,3.04-7.59s-1.18-5.73-3.26-7.82c-2.1-2.08-4.89-3.23-7.86-3.23H23.02c-2.6,0-5.03,1-6.86,2.82-1.83,1.82-2.84,4.23-2.84,6.81s1.01,4.99,2.84,6.81l91.26,93.49c.13.13.19.26.19.44s-.06.32-.18.45c-.13.13-.27.18-.45.18h-42.04s-47.83,0-47.83,0c-.56,0-1.07-.21-1.44-.58s-.62-.97-.62-1.47.17-.94.48-1.31l32.8-29.44.15-.14c1.85-1.81,2.87-4.24,2.87-6.83s-1.01-4.99-2.84-6.81l-26.96-26.8c-1.82-1.82-4.26-2.82-6.85-2.82s-5.03,1-6.86,2.82c-1.82,1.82-2.84,4.23-2.84,6.81v36.79h9.05v-11.36s.01-25.43.01-25.43c0-.17.07-.33.18-.45.25-.24.66-.24.9,0l26.96,26.8c.12.12.19.27.19.44,0,.15-.05.28-.14.39l-32.86,29.49-.26.25c-1.96,2.06-3.04,4.76-3.04,7.59s1.18,5.73,3.26,7.82c2.1,2.08,4.89,3.23,7.86,3.23h89.87c2.6,0,5.03-1,6.86-2.82s2.84-4.23,2.84-6.81-1.01-4.99-2.84-6.81L22.58,15.07c-.13-.13-.19-.26-.19-.44s.06-.32.18-.45c.13-.13.27-.18.45-.18h42.04s47.83,0,47.83,0c.56,0,1.07.21,1.44.58s.62.97.62,1.47-.17.94-.48,1.31l-32.8,29.44-.15.14c-1.85,1.81-2.87,4.24-2.87,6.83s1.01,4.99,2.84,6.81l26.96,26.8c1.82,1.82,4.26,2.82,6.85,2.82s5.03-1,6.86-2.82c1.82-1.82,2.84-4.23,2.84-6.81v-36.79h-9.06Z"/>
</svg>