<?xml version="1.0" encoding="UTF-8"?>
<svg id="Main_art" xmlns="http://www.w3.org/2000/svg" viewBox="0 0 570 130">
	<defs>
		<style>
			.cls-1 {
			fill: #cdcdd4;
			}
		</style>
	</defs>
	<path class="cls-1" d="M115.96,43.76v36.79c0,.17-.07.33-.18.45-.25.24-.66.24-.9,0l-26.96-26.8c-.12-.12-.19-.27-.19-.44,0-.15.05-.28.14-.39l32.86-29.49.26-.25c1.96-2.06,3.04-4.76,3.04-7.59s-1.18-5.73-3.26-7.82c-2.1-2.08-4.89-3.23-7.86-3.23H23.05c-2.6,0-5.03,1-6.86,2.82-1.83,1.82-2.84,4.23-2.84,6.81s1.01,4.99,2.84,6.81l91.26,93.49c.13.13.19.26.19.44s-.06.32-.18.45c-.13.13-.27.18-.45.18h-42.04s-47.83,0-47.83,0c-.56,0-1.07-.21-1.44-.58s-.62-.97-.62-1.47.17-.94.48-1.31l32.8-29.44.15-.14c1.85-1.81,2.87-4.24,2.87-6.83s-1.01-4.99-2.84-6.81l-26.96-26.8c-1.82-1.82-4.26-2.82-6.85-2.82s-5.03,1-6.86,2.82c-1.82,1.82-2.84,4.23-2.84,6.81v36.79h9.05v-11.36s.01-25.43.01-25.43c0-.17.07-.33.18-.45.25-.24.66-.24.9,0l26.96,26.8c.12.12.19.27.19.44,0,.15-.05.28-.14.39l-32.86,29.49-.26.25c-1.96,2.06-3.04,4.76-3.04,7.59s1.18,5.73,3.26,7.82c2.1,2.08,4.89,3.23,7.86,3.23h89.87c2.6,0,5.03-1,6.86-2.82s2.84-4.23,2.84-6.81-1.01-4.99-2.84-6.81L22.6,15.07c-.13-.13-.19-.26-.19-.44s.06-.32.18-.45c.13-.13.27-.18.45-.18h42.04s47.83,0,47.83,0c.56,0,1.07.21,1.44.58s.62.97.62,1.47-.17.94-.48,1.31l-32.8,29.44-.15.14c-1.85,1.81-2.87,4.24-2.87,6.83s1.01,4.99,2.84,6.81l26.96,26.8c1.82,1.82,4.26,2.82,6.85,2.82s5.03-1,6.86-2.82c1.82-1.82,2.84-4.23,2.84-6.81v-36.79h-9.06Z"/>
	<g>
		<path class="cls-1" d="M164.08,99.9V28.88h32.65c13.89,0,22.26,5.72,22.26,17.7,0,8.27-4.66,13.89-13.78,15.26v.85c10.81,1.38,16.32,8.37,16.32,17.7,0,12.08-8.59,19.5-23.53,19.5h-33.92ZM175.53,58.35h20.14c8.59,0,11.98-2.33,11.98-9.54s-3.07-9.65-11.66-9.65h-20.46v19.19ZM175.53,89.62h22.16c8.59,0,12.3-2.44,12.3-10.81s-3.71-10.92-12.3-10.92h-22.16v21.73Z"/>
		<path class="cls-1" d="M225.99,73.51c0-16.32,9.75-27.35,25.44-27.35,14.2,0,24.17,8.48,24.17,22.9,0,2.76-.32,5.62-.64,7.21h-38.27c.42,9.65,3.92,14.52,14.95,14.52,8.8,0,12.19-2.97,12.19-7.74v-.85h11.34v.95c0,10.81-9.43,17.81-23.64,17.81-17.38,0-25.55-11.02-25.55-27.45ZM236.8,68.63h27.88c.42-9.01-4.45-12.83-13.46-12.83-9.96,0-13.78,4.66-14.42,12.83Z"/>
		<path class="cls-1" d="M281.63,73.62c0-16.43,9.65-27.46,26.18-27.46,13.89,0,23.43,8.59,23.43,21.2v.95h-11.34v-.64c0-7.74-4.03-11.24-12.83-11.24-10.18,0-14.1,5.72-14.1,17.17s3.92,17.07,14.1,17.07c8.8,0,12.83-3.39,12.83-11.13v-.64h11.34v.95c0,12.51-9.65,21.2-23.85,21.2-16.43,0-25.76-11.13-25.76-27.45Z"/>
		<path class="cls-1" d="M336.75,73.51c0-16.32,10.07-27.35,26.29-27.35s25.86,11.02,25.86,27.35-9.75,27.45-25.86,27.45-26.29-11.02-26.29-27.45ZM377.88,73.51c0-11.77-3.82-17.17-14.84-17.17s-15.05,5.41-15.05,17.17,3.92,17.28,15.05,17.28,14.84-5.41,14.84-17.28Z"/>
		<path class="cls-1" d="M395.27,82.1v-.21h11.02v1.91c0,5.72,2.54,7.84,12.61,7.84,8.48,0,10.07-1.91,10.07-5.83,0-4.24-2.54-5.51-10.28-6.89l-8.16-1.38c-9.43-1.7-15.37-5.94-15.37-15.48s7.84-15.9,21.62-15.9c12.4,0,21.73,6.15,21.73,18.13v.95h-10.92v-1.27c0-4.88-1.7-8.37-11.13-8.37-8.37,0-10.39,2.23-10.39,6.25s1.91,5.19,9.33,6.68l8.9,1.7c10.18,2.01,15.48,6.57,15.48,15.26,0,9.75-7.74,15.48-21.09,15.48-15.37,0-23.43-6.04-23.43-18.87Z"/>
		<path class="cls-1" d="M445.4,73.51c0-16.32,10.07-27.35,26.29-27.35s25.87,11.02,25.87,27.35-9.75,27.45-25.87,27.45-26.29-11.02-26.29-27.45ZM486.53,73.51c0-11.77-3.82-17.17-14.84-17.17s-15.05,5.41-15.05,17.17,3.92,17.28,15.05,17.28,14.84-5.41,14.84-17.28Z"/>
		<path class="cls-1" d="M506.88,99.9v-43.14h-7.74v-9.54h7.74c.21-11.87,7.31-18.34,20.67-18.34h4.24v9.12h-6.36c-5.09,0-7.42,1.91-7.42,6.36v2.86h19.82l2.44-13.04h8.8v13.04h15.9v9.54h-15.9v26.39c0,5.51,2.33,6.47,9.43,6.47h6.47v9.33c-2.23.53-5.83.95-9.43.95-11.77,0-17.91-4.35-17.91-16.22v-26.92h-19.29v43.14h-11.45Z"/>
	</g>
</svg>